# xmcd CD database file generated by OrangeCD 4.3
#
# Track frame offsets:
#	150
#	38890
#	69002
#	86022
#	117500
#	139770
#	157540
#	219165
#
# Disc length: 3004 seconds
#
# Revision: 0
# Processed by: cddbd v1.4PL0 Copyright (c) Steve Scherf et al.
# Submitted via: OrangeCD 4.3
#
DISCID=5d0bba08
DTITLE=Various Artist - Best Club  CD 2
DYEAR=1900
DGENRE=Blues
TTITLE0=Humple Pie: For your love
TTITLE1=UFO: Boogie
TTITLE2=HARDIN and YORK: Like a rolling stone
TTITLE3=HARDIN and YORK: Freedom
TTITLE4=Atomic Rooster: Break Through
TTITLE5=Ashton, Gardner and Dyke: Resurrection Shuffle 
TTITLE6=Curtis Mayfield: Move on up/we are winner
TTITLE7=Curtis Mayfield: We people
EXTD=
EXTT0=
EXTT1=
EXTT2=
EXTT3=
EXTT4=
EXTT5=
EXTT6=
EXTT7=
PLAYORDER=
